<svg width="30" height="30" viewBox="0 0 30 30" fill="none" xmlns="http://www.w3.org/2000/svg">
<path d="M29.9512 2.50119V7.50119C29.9512 7.83271 29.8195 8.15065 29.5851 8.38507C29.3507 8.61949 29.0328 8.75119 28.7012 8.75119C28.3697 8.75119 28.0518 8.61949 27.8174 8.38507C27.5829 8.15065 27.4512 7.83271 27.4512 7.50119V4.29744L20.8262 10.8874C20.5899 11.1146 20.2737 11.2397 19.9459 11.236C19.6181 11.2323 19.3049 11.0999 19.0738 10.8675C18.8427 10.635 18.7121 10.3211 18.7102 9.99326C18.7083 9.66545 18.8353 9.35003 19.0637 9.11494L25.7137 2.50119H22.4512C22.1197 2.50119 21.8018 2.36949 21.5674 2.13507C21.3329 1.90065 21.2012 1.58271 21.2012 1.25119C21.2012 0.919665 21.3329 0.601723 21.5674 0.367302C21.8018 0.132882 22.1197 0.00118551 22.4512 0.00118551H27.4512C28.1143 0.00118551 28.7502 0.264578 29.219 0.733419C29.6878 1.20226 29.9512 1.83815 29.9512 2.50119ZM28.82 20.9249C29.5444 21.6513 29.9512 22.6353 29.9512 23.6612C29.9512 24.6871 29.5444 25.6711 28.82 26.3974L27.68 27.7099C17.4412 37.5075 -7.47002 12.6037 2.17998 2.33494L3.61623 1.08494C4.34385 0.380899 5.31916 -0.00873836 6.33159 0.000148754C7.34402 0.00903587 8.31234 0.415735 9.02748 1.13244C9.06498 1.17119 11.3812 4.18119 11.3812 4.18119C12.0683 4.903 12.4509 5.86177 12.4495 6.85831C12.4481 7.85486 12.0628 8.81256 11.3737 9.53244L9.92498 11.3537C10.726 13.3001 11.9038 15.069 13.3906 16.5588C14.8774 18.0486 16.644 19.23 18.5887 20.0349L20.42 18.5787C21.1398 17.89 22.0972 17.5049 23.0935 17.5035C24.0897 17.5021 25.0482 17.8845 25.77 18.5712C25.77 18.5712 28.7812 20.8874 28.82 20.9249ZM27.1012 22.7424C27.1012 22.7424 24.11 20.4399 24.0712 20.4024C23.8137 20.1471 23.4658 20.0038 23.1031 20.0038C22.7405 20.0038 22.3925 20.1471 22.135 20.4024C22.1012 20.4349 19.58 22.4449 19.58 22.4449C19.4101 22.5802 19.2079 22.6688 18.9933 22.7021C18.7787 22.7355 18.5591 22.7123 18.3562 22.6349C15.8352 21.6975 13.5455 20.2286 11.6423 18.328C9.73913 16.4274 8.26714 14.1396 7.32623 11.6199C7.24392 11.4151 7.21733 11.1921 7.24917 10.9736C7.281 10.7552 7.37013 10.549 7.50748 10.3762C7.50748 10.3762 9.51623 7.85494 9.54998 7.82119C9.80532 7.56367 9.94858 7.21571 9.94858 6.85306C9.94858 6.49042 9.80532 6.14246 9.54998 5.88494C9.51248 5.84744 7.20998 2.85494 7.20998 2.85494C6.94877 2.62041 6.60773 2.49467 6.25679 2.5035C5.90585 2.51234 5.57157 2.65506 5.32248 2.90244L3.88623 4.15244C-3.16877 12.6299 18.4225 33.0249 25.8512 26.0049L26.9912 24.6924C27.26 24.4458 27.4219 24.104 27.4424 23.7398C27.463 23.3756 27.3406 23.0177 27.1012 22.7424Z" fill="#7D7D7D"/>
</svg>
