<svg width="30" height="30" viewBox="0 0 30 30" fill="none" xmlns="http://www.w3.org/2000/svg">
<g clip-path="url(#clip0_225_581)">
<path d="M30 20V26.25C30 27.2445 29.6049 28.1984 28.9016 28.9016C28.1984 29.6049 27.2446 30 26.25 30H20C18.2464 29.9982 16.524 29.5353 15.0058 28.6577C13.4876 27.7801 12.2268 26.5187 11.35 25C12.2923 24.9932 13.2315 24.8894 14.1525 24.69C14.8539 25.567 15.7437 26.275 16.756 26.7614C17.7682 27.2479 18.8769 27.5003 20 27.5H26.25C26.5815 27.5 26.8995 27.3683 27.1339 27.1339C27.3683 26.8994 27.5 26.5815 27.5 26.25V20C27.4997 18.8765 27.2465 17.7676 26.7592 16.7553C26.2719 15.743 25.563 14.8534 24.685 14.1525C24.886 13.2316 24.9916 12.2925 25 11.35C26.5187 12.2268 27.7801 13.4876 28.6577 15.0058C29.5353 16.524 29.9982 18.2464 30 20ZM22.4712 12.0637C22.5882 10.4533 22.357 8.83655 21.7935 7.32336C21.2301 5.81018 20.3475 4.43603 19.2057 3.29427C18.064 2.15251 16.6898 1.26991 15.1766 0.706445C13.6634 0.142975 12.0467 -0.0881586 10.4362 0.0287485C7.58239 0.354663 4.94616 1.71272 3.02397 3.84717C1.10178 5.98163 0.0262839 8.74521 0 11.6175L0 17.9175C0 21.0825 1.88375 22.5 3.75 22.5H10.875C13.7485 22.4753 16.5138 21.4005 18.6497 19.4782C20.7857 17.5559 22.1449 14.9188 22.4712 12.0637ZM17.4375 5.06375C18.3249 5.95312 19.0109 7.02274 19.4492 8.20023C19.8874 9.37771 20.0675 10.6356 19.9775 11.8887C19.7107 14.1183 18.6381 16.1735 16.9617 17.6674C15.2852 19.1613 13.1205 19.9909 10.875 20H3.75C2.59 20 2.5 18.4062 2.5 17.9175V11.6175C2.51042 9.37296 3.34081 7.20963 4.83489 5.53459C6.32898 3.85956 8.38374 2.78833 10.6125 2.5225C10.82 2.5075 11.0275 2.5 11.235 2.5C12.3866 2.49892 13.5271 2.72479 14.5914 3.16469C15.6556 3.60459 16.6227 4.2499 17.4375 5.06375Z" fill="#7D7D7D"/>
</g>
<defs>
<clipPath id="clip0_225_581">
<rect width="30" height="30" fill="white"/>
</clipPath>
</defs>
</svg>
