<svg width="30" height="30" viewBox="0 0 30 30" fill="none" xmlns="http://www.w3.org/2000/svg">
<g clip-path="url(#clip0_225_588)">
<path d="M15 7.5C14.0111 7.5 13.0444 7.79324 12.2222 8.34265C11.3999 8.89206 10.759 9.67295 10.3806 10.5866C10.0022 11.5002 9.90315 12.5055 10.0961 13.4755C10.289 14.4454 10.7652 15.3363 11.4645 16.0355C12.1637 16.7348 13.0547 17.211 14.0246 17.4039C14.9945 17.5969 15.9998 17.4978 16.9134 17.1194C17.8271 16.741 18.608 16.1001 19.1574 15.2779C19.7068 14.4556 20 13.4889 20 12.5C20 11.1739 19.4732 9.90215 18.5355 8.96447C17.5979 8.02678 16.3261 7.5 15 7.5ZM15 15C14.5056 15 14.0222 14.8534 13.6111 14.5787C13.2 14.304 12.8795 13.9135 12.6903 13.4567C12.5011 12.9999 12.4516 12.4972 12.548 12.0123C12.6445 11.5273 12.8826 11.0819 13.2322 10.7322C13.5819 10.3826 14.0273 10.1445 14.5123 10.048C14.9972 9.95157 15.4999 10.0011 15.9567 10.1903C16.4135 10.3795 16.804 10.7 17.0787 11.1111C17.3534 11.5222 17.5 12.0055 17.5 12.5C17.5 13.163 17.2366 13.7989 16.7678 14.2678C16.2989 14.7366 15.6631 15 15 15Z" fill="#7D7D7D"/>
<path d="M15.0004 30C13.9478 30.0054 12.9093 29.7585 11.9717 29.2801C11.0342 28.8016 10.2249 28.1055 9.61164 27.25C4.84789 20.6787 2.43164 15.7387 2.43164 12.5662C2.43164 9.23281 3.75584 6.0359 6.11294 3.6788C8.47004 1.3217 11.667 -0.00250244 15.0004 -0.00250244C18.3338 -0.00250244 21.5308 1.3217 23.8878 3.6788C26.2449 6.0359 27.5692 9.23281 27.5692 12.5662C27.5692 15.7387 25.1529 20.6787 20.3892 27.25C19.7759 28.1055 18.9666 28.8016 18.0291 29.2801C17.0915 29.7585 16.053 30.0054 15.0004 30ZM15.0004 2.72625C12.3909 2.72922 9.88917 3.76715 8.04398 5.61234C6.1988 7.45752 5.16087 9.95927 5.15789 12.5687C5.15789 15.0812 7.52414 19.7275 11.8191 25.6512C12.1838 26.1535 12.6621 26.5622 13.215 26.8441C13.768 27.1259 14.3798 27.2729 15.0004 27.2729C15.621 27.2729 16.2328 27.1259 16.7858 26.8441C17.3387 26.5622 17.817 26.1535 18.1816 25.6512C22.4767 19.7275 24.8429 15.0812 24.8429 12.5687C24.8399 9.95927 23.802 7.45752 21.9568 5.61234C20.1116 3.76715 17.6099 2.72922 15.0004 2.72625Z" fill="#7D7D7D"/>
</g>
<defs>
<clipPath id="clip0_225_588">
<rect width="30" height="30" fill="white"/>
</clipPath>
</defs>
</svg>
