<svg width="30" height="30" viewBox="0 0 30 30" fill="none" xmlns="http://www.w3.org/2000/svg">
<g clip-path="url(#clip0_106_5471)">
<path d="M28.75 13.75H1.25C0.559644 13.75 0 14.3096 0 15C0 15.6904 0.559644 16.25 1.25 16.25H28.75C29.4403 16.25 30 15.6904 30 15C30 14.3096 29.4403 13.75 28.75 13.75Z" fill="white"/>
<path d="M28.75 5H1.25C0.559644 5 0 5.55964 0 6.25C0 6.94036 0.559644 7.5 1.25 7.5H28.75C29.4403 7.5 30 6.94036 30 6.25C30 5.55964 29.4403 5 28.75 5Z" fill="white"/>
<path d="M28.75 22.5H1.25C0.559644 22.5 0 23.0596 0 23.75C0 24.4404 0.559644 25 1.25 25H28.75C29.4403 25 30 24.4404 30 23.75C30 23.0596 29.4403 22.5 28.75 22.5Z" fill="white"/>
</g>
<defs>
<clipPath id="clip0_106_5471">
<rect width="30" height="30" fill="white"/>
</clipPath>
</defs>
</svg>
