<svg width="30" height="30" viewBox="0 0 30 30" fill="none" xmlns="http://www.w3.org/2000/svg">
<path d="M29.6335 0.366249C29.3991 0.13191 29.0812 0.000266075 28.7497 0.000266075C28.4183 0.000266075 28.1004 0.13191 27.866 0.366249L14.9997 13.2325L2.13348 0.366249C1.89907 0.13191 1.58119 0.000266075 1.24973 0.000266075C0.918278 0.000266075 0.600393 0.13191 0.365983 0.366249C0.131644 0.600659 0 0.918544 0 1.25C0 1.58145 0.131644 1.89934 0.365983 2.13375L13.2322 15L0.365983 27.8662C0.131644 28.1007 0 28.4185 0 28.75C0 29.0815 0.131644 29.3993 0.365983 29.6337C0.600393 29.8681 0.918278 29.9997 1.24973 29.9997C1.58119 29.9997 1.89907 29.8681 2.13348 29.6337L14.9997 16.7675L27.866 29.6337C28.1004 29.8681 28.4183 29.9997 28.7497 29.9997C29.0812 29.9997 29.3991 29.8681 29.6335 29.6337C29.8678 29.3993 29.9995 29.0815 29.9995 28.75C29.9995 28.4185 29.8678 28.1007 29.6335 27.8662L16.7672 15L29.6335 2.13375C29.8678 1.89934 29.9995 1.58145 29.9995 1.25C29.9995 0.918544 29.8678 0.600659 29.6335 0.366249Z" fill="white"/>
</svg>
